{"asset":{"version":"2.0","generator":"VECTARY"},"nodes":[{"translation":[1.4210854715202004e-17,-1.5349162545890432e-17,-6.597024199072083e-19],"scale":[0.0009999999999999998,0.0009999999999999998,0.0005],"rotation":[-0.5570036681540489,0.4355994876752431,-0.5570036681540487,0.43559948767524326],"name":"Capsule","mesh":0},{"translation":[-1.9202236914254988e-21,3.009265538105056e-39,-1.8317087484374246e-23],"scale":[0.0009999999999999998,0.0009999999999999998,0.0005],"rotation":[-0.7018764225140597,-0.08584571928095897,-0.08584571928095898,0.7018764225140598],"name":"Capsule","mesh":1},{"translation":[1.4210854715202004e-17,1.7053025658242405e-16,0.5198030946395121],"scale":[1,1,1],"rotation":[1.1102230246251565e-16,0,1.1102230246251565e-16,1],"name":"Camera","camera":0}],"materials":[{"pbrMetallicRoughness":{"baseColorFactor":[1,1,1,1],"baseColorTexture":{"index":0,"extensions":{"KHR_texture_transform":{"offset":[0,0],"scale":[1,1],"rotation":0}},"texCoord":0},"metallicFactor":0,"roughnessFactor":0.1},"name":"Capsule material","emissiveFactor":[0,0,0],"alphaMode":"OPAQUE","doubleSided":false}],"textures":[{"sampler":0,"source":0}],"images":[{"uri":"Group_5196.jpg","mimeType":"image/jpeg"}],"samplers":[{"wrapS":10497,"wrapT":10497}],"meshes":[{"primitives":[{"mode":4,"attributes":{"POSITION":1,"NORMAL":2,"TEXCOORD_0":3},"material":0,"indices":0}]},{"primitives":[{"mode":4,"attributes":{"POSITION":5,"NORMAL":6,"TEXCOORD_0":7},"material":0,"indices":4}]}],"accessors":[{"bufferView":0,"byteOffset":0,"componentType":5125,"count":29040,"type":"SCALAR"},{"bufferView":1,"byteOffset":0,"componentType":5126,"count":5042,"max":[11,11,279],"min":[-11,-11,-2.842170943040401e-14],"type":"VEC3"},{"bufferView":2,"byteOffset":0,"componentType":5126,"count":5042,"type":"VEC3"},{"bufferView":3,"byteOffset":0,"componentType":5126,"count":5042,"type":"VEC2"},{"bufferView":4,"byteOffset":0,"componentType":5125,"count":29040,"type":"SCALAR"},{"bufferView":5,"byteOffset":0,"componentType":5126,"count":5042,"max":[11,11,279],"min":[-11,-11,0],"type":"VEC3"},{"bufferView":6,"byteOffset":0,"componentType":5126,"count":5042,"type":"VEC3"},{"bufferView":7,"byteOffset":0,"componentType":5126,"count":5042,"type":"VEC2"}],"bufferViews":[{"buffer":0,"byteOffset":0,"byteLength":116160,"target":34963},{"buffer":0,"byteOffset":116160,"byteLength":60504,"target":34962},{"buffer":0,"byteOffset":176664,"byteLength":60504,"target":34962},{"buffer":0,"byteOffset":237168,"byteLength":40336,"target":34962},{"buffer":0,"byteOffset":277504,"byteLength":116160,"target":34963},{"buffer":0,"byteOffset":393664,"byteLength":60504,"target":34962},{"buffer":0,"byteOffset":454168,"byteLength":60504,"target":34962},{"buffer":0,"byteOffset":514672,"byteLength":40336,"target":34962}],"cameras":[{"name":"Camera","type":"orthographic","extras":{"targetDistance":0.519803094639512},"orthographic":{"xmag":0.5416115049180849,"ymag":0.3277865723907715,"zfar":39.71648924522598,"znear":0.0030235344225363506}}],"scene":0,"scenes":[{"nodes":[0,1,2],"name":"pipe1_0"}],"extensionsUsed":["KHR_texture_transform"],"buffers":[{"byteLength":555008,"uri":"pipe1_0.bin"}]}